<?xml version="1.0" encoding="UTF-8" standalone="no"?>
<!-- Created with Inkscape (http://www.inkscape.org/) -->

<svg
   width="100mm"
   height="70mm"
   viewBox="0 0 100 70"
   version="1.1"
   id="svg1"
   inkscape:version="1.3.2 (091e20ef0f, 2023-11-25, custom)"
   sodipodi:docname="nik.svg"
   xmlns:inkscape="http://www.inkscape.org/namespaces/inkscape"
   xmlns:sodipodi="http://sodipodi.sourceforge.net/DTD/sodipodi-0.dtd"
   xmlns="http://www.w3.org/2000/svg"
   xmlns:svg="http://www.w3.org/2000/svg">
  <sodipodi:namedview
     id="namedview1"
     pagecolor="#ffffff"
     bordercolor="#000000"
     borderopacity="0.25098039"
     inkscape:showpageshadow="false"
     inkscape:pageopacity="0.0"
     inkscape:pagecheckerboard="false"
     inkscape:deskcolor="#d1d1d1"
     inkscape:document-units="mm"
     showguides="false"
     borderlayer="false"
     showborder="false"
     labelstyle="default"
     inkscape:zoom="1"
     inkscape:cx="119"
     inkscape:cy="124.5"
     inkscape:window-width="1920"
     inkscape:window-height="1024"
     inkscape:window-x="0"
     inkscape:window-y="32"
     inkscape:window-maximized="1"
     inkscape:current-layer="layer1" />
  <defs
     id="defs1">
    <inkscape:path-effect
       effect="bend_path"
       id="path-effect4"
       is_visible="true"
       lpeversion="1"
       bendpath="m 32.964872,36.52911 c 16.690997,0.39673 31.204927,0.219539 45.558212,0"
       prop_scale="1.032385"
       scale_y_rel="false"
       vertical="false"
       hide_knot="false"
       bendpath-nodetypes="cc" />
    <inkscape:path-effect
       effect="bend_path"
       id="path-effect3"
       is_visible="true"
       lpeversion="1"
       bendpath="M 31.358538,18.053952 C 37.824103,13.23936 46.267357,13.117627 74.714217,8.7935353"
       prop_scale="1"
       scale_y_rel="false"
       vertical="false"
       hide_knot="false"
       bendpath-nodetypes="cc" />
    <linearGradient
       id="swatch5"
       inkscape:swatch="solid">
      <stop
         style="stop-color:#800000;stop-opacity:1;"
         offset="0"
         id="stop6" />
    </linearGradient>
    <filter
       y="-0.022464"
       height="1.044928"
       inkscape:menu-tooltip="Darkens the edge with an inner blur and adds a flexible glow"
       inkscape:menu="Shadows and Glows"
       inkscape:label="Dark and Glow"
       style="color-interpolation-filters:sRGB;"
       id="filter8"
       x="-0.01404"
       width="1.02808">
      <feGaussianBlur
         stdDeviation="0.468"
         result="result6"
         id="feGaussianBlur7" />
      <feComposite
         result="result8"
         in="SourceGraphic"
         operator="atop"
         in2="result6"
         id="feComposite7" />
      <feComposite
         result="result9"
         operator="over"
         in2="SourceAlpha"
         in="result8"
         id="feComposite8" />
      <feColorMatrix
         values="1 0 0 0 0 0 1 0 0 0 0 0 1 0 0 0 0 0 1 0 "
         result="result10"
         id="feColorMatrix8" />
      <feBlend
         in="result10"
         mode="normal"
         in2="result6"
         id="feBlend8" />
    </filter>
  </defs>
  <g
     inkscape:label="Layer 1"
     inkscape:groupmode="layer"
     id="layer1"
     style="display:inline;opacity:1">
    <ellipse
       style="display:none;opacity:1;fill:#ffffff;fill-opacity:1;fill-rule:nonzero;stroke-width:0.264154;stroke-dasharray:none;filter:url(#filter8)"
       id="path7"
       cx="50"
       cy="35"
       rx="40"
       ry="25"
       inkscape:label="Shadow"
       sodipodi:insensitive="true" />
    <ellipse
       style="display:inline;opacity:1;fill:#8a0000;fill-opacity:1;fill-rule:nonzero;stroke-width:0.264154;stroke-dasharray:none"
       id="ellipse7"
       cx="50"
       cy="35"
       rx="40"
       ry="25"
       inkscape:label="Circle"
       sodipodi:insensitive="true" />
    <path
       style="display:inline;opacity:1;fill:#ffffff;fill-opacity:1;fill-rule:nonzero;stroke-width:59.3881;stroke-dasharray:none"
       d="M 37.915664,13.803729 C -6.6874081,32.829043 26.182693,55.776715 37.518308,54.67359 0.59891838,54.222777 7.5819143,14.942683 37.915664,13.803729 Z"
       id="path16"
       sodipodi:nodetypes="ccc"
       inkscape:label="powerstrike1"
       sodipodi:insensitive="true" />
    <path
       style="display:inline;opacity:1;fill:#ffffff;fill-opacity:1;fill-rule:nonzero;stroke-width:59.3881;stroke-dasharray:none"
       d="m 64.293749,12.964583 c 32.79437,6.021349 26.730561,55.241109 -33.888116,42.97291 54.354222,4.076494 58.650931,-35.952405 33.888116,-42.97291 z"
       id="path17"
       sodipodi:nodetypes="ccc"
       inkscape:label="powerstrike2"
       sodipodi:insensitive="true" />
    <path
       style="font-size:7.7611px;font-family:Mynerve;-inkscape-font-specification:'Mynerve, Normal';fill:#ffffff;stroke-width:59.388"
       d="m 33.239917,20.549628 c -0.03637,-0.005 -0.07909,-0.02463 -0.128258,-0.05876 -0.04918,-0.03413 -0.08794,-0.07289 -0.116018,-0.116559 -0.09971,-0.145211 -0.220967,-0.319526 -0.363635,-0.523034 -0.01869,-0.02667 -0.440881,-0.628033 -0.459575,-0.654698 -0.163692,-0.232973 -0.327016,-0.466198 -0.489971,-0.699673 -0.159703,-0.236519 -0.308977,-0.456338 -0.449834,-0.661675 -0.134953,-0.20477 -0.25391,-0.386049 -0.345779,-0.526109 0,0 -0.02576,-0.03886 -0.07718,-0.116641 -0.05064,-0.08478 -0.111912,-0.18421 -0.183742,-0.298334 -0.07187,-0.114185 -0.139292,-0.218516 -0.202658,-0.313261 -0.06335,-0.09476 -0.106071,-0.153054 -0.128599,-0.175131 -0.08983,-0.08817 -0.13855,-0.183873 -0.144713,-0.288186 -0.0092,-0.1084 0.01063,-0.208811 0.05967,-0.300729 0.0527,-0.113547 0.134975,-0.164533 0.244196,-0.151985 0.106517,0.0083 0.212306,0.08629 0.31859,0.232928 0.05802,0.06695 0.130473,0.164357 0.21791,0.292596 0.09155,0.125383 0.186654,0.260643 0.285659,0.405967 0.09604,0.140962 0.1898,0.274262 0.280986,0.399764 0.08825,0.121193 0.162999,0.214385 0.223796,0.279238 0.149748,0.154518 0.319636,0.283088 0.507627,0.387896 0.09547,0.05458 0.18288,0.06198 0.263273,0.02233 0.08046,-0.03969 0.148033,-0.107202 0.204077,-0.203168 0.05984,-0.09834 0.09809,-0.237036 0.116879,-0.417281 0.02001,-0.186996 0.02714,-0.374171 0.02047,-0.561642 -0.0023,-0.02252 -0.03074,-0.08083 -0.0852,-0.17472 -0.05294,-0.100683 -0.119092,-0.214922 -0.198432,-0.342129 l -0.23345,-0.402506 c -0.08045,-0.138708 -0.149573,-0.262798 -0.207483,-0.372745 -0.0579,-0.109918 -0.08844,-0.187732 -0.09165,-0.233711 -0.02804,-0.240624 0.01686,-0.355431 0.12971,-0.341748 0.115046,0.0067 0.263348,0.128376 0.444287,0.365431 0.179121,0.233388 0.351946,0.569452 0.529311,1.01022 0.06316,0.154197 0.148155,0.307954 0.253922,0.462326 0.109722,0.152043 0.232449,0.276577 0.366759,0.3744 0.135872,0.09119 0.277185,0.130032 0.424895,0.117413 0.05271,-0.004 0.115869,-0.01626 0.189773,-0.03635 0.07389,-0.02009 0.133282,-0.04397 0.178399,-0.07211 0.0507,-0.03668 0.100601,-0.05533 0.149281,-0.05599 0.04642,-0.0053 0.09247,0.02423 0.137981,0.08847 0.03707,0.05681 0.05493,0.114263 0.05399,0.172149 7.11e-4,0.05137 -0.02276,0.09716 -0.0702,0.137669 -0.125257,0.107434 -0.265298,0.172335 -0.423173,0.196002 -0.15786,0.02367 -0.309432,0.0198 -0.455991,-0.01218 -0.15173,-0.02326 -0.284487,-0.07624 -0.398187,-0.160515 -0.109813,-0.08643 -0.230025,-0.19356 -0.36086,-0.321076 -0.0021,0.11453 -0.0027,0.225508 -0.0019,0.332879 8.39e-4,0.107375 -0.0124,0.21129 -0.03939,0.31188 -0.01765,0.06493 -0.0435,0.140788 -0.07709,0.228187 -0.02983,0.08503 -0.07495,0.164728 -0.135306,0.239591 -0.05671,0.07256 -0.134703,0.12262 -0.235034,0.151243 -0.100387,0.02864 -0.231454,0.02283 -0.395558,-0.01554 -0.09508,-0.02278 -0.204543,-0.07294 -0.32895,-0.150093 -0.120296,-0.07941 -0.209689,-0.134721 -0.264239,-0.165199 0.08466,0.123806 0.169375,0.24758 0.254133,0.371322 0.02997,0.04239 0.07687,0.11641 0.141589,0.22291 0.06827,0.104001 0.144971,0.22344 0.230977,0.359261 0.08932,0.133208 0.18025,0.268439 0.272805,0.405701 0.08953,0.133074 0.168673,0.251302 0.237427,0.354736 0.06865,0.103346 0.119851,0.175128 0.152993,0.214847 0.09327,0.117385 0.164094,0.210373 0.211901,0.277618 0.05119,0.06529 0.09365,0.158528 0.129265,0.279693 0.02078,0.06793 0.0176,0.12454 -0.0094,0.170045 -0.02397,0.04972 -0.06735,0.0691 -0.131031,0.0587 -2.2e-5,1.8e-5 -4.4e-5,3.5e-5 -6.6e-5,5.3e-5 z M 37.466578,15.9731 c 0.05338,0.101981 0.07492,0.193059 0.06527,0.272877 -0.0055,0.07845 -0.02449,0.150637 -0.05675,0.216637 -0.03226,0.066 -0.05805,0.129927 -0.0775,0.19169 -0.0034,0.0084 -0.0068,0.01679 -0.0104,0.02506 0,0 0,0 0,0 0,0 0,0 0,0 -0.05499,0.128967 -0.137888,0.236907 -0.248917,0.324783 -0.119953,0.08867 -0.243412,0.146912 -0.372194,0.175078 -0.171584,0.03382 -0.320256,0.02456 -0.447736,-0.02929 -0.127383,-0.05381 -0.273713,-0.166449 -0.440673,-0.337131 -0.144621,-0.140622 -0.289887,-0.326277 -0.43439,-0.556652 -0.146673,-0.23527 -0.281478,-0.478542 -0.402799,-0.730507 -0.119327,-0.258829 -0.212173,-0.486027 -0.278196,-0.683505 -0.0455,-0.127038 -0.08542,-0.253669 -0.119563,-0.380019 -0.0297,-0.128284 -0.05013,-0.260606 -0.06083,-0.397026 -0.0066,-0.127047 -0.01542,-0.235671 -0.02712,-0.326538 -0.01168,-0.09069 0.02844,-0.150224 0.120346,-0.177566 0.08722,-0.02538 0.161261,-0.01665 0.221738,0.02566 0.06512,0.04044 0.112103,0.09679 0.141399,0.168702 0.02929,0.0719 0.04096,0.139839 0.03531,0.203669 0.0011,0.145018 0.01988,0.285722 0.05559,0.422236 -0.0051,-0.01714 0.123323,0.413715 0.11821,0.396574 0.06857,0.201566 0.159434,0.418507 0.271825,0.65228 0.114513,0.226947 0.229183,0.431858 0.343083,0.614329 0.06039,0.08558 0.129891,0.183166 0.221394,0.312058 0.08729,0.120916 0.164314,0.212625 0.231337,0.274919 0.05722,0.04951 0.119401,0.08318 0.186552,0.101148 0.06928,0.01158 0.120646,0.01376 0.154519,0.0062 0.03388,-0.0076 0.07884,-0.02776 0.135306,-0.06041 0.05646,-0.03259 0.09943,-0.07083 0.128931,-0.114989 0.116863,-0.203028 0.213689,-0.362867 0.267307,-0.450294 7.9e-5,-1.29e-4 0.008,-0.01287 0.008,-0.013 0.05656,-0.0913 0.102131,-0.142708 0.13549,-0.154257 0.03342,-0.01157 0.07865,-0.0025 0.135413,0.02727 6e-6,1.3e-5 1.1e-5,2.6e-5 1.6e-5,3.9e-5 z m 1.552729,-3.518958 c 0.118385,-0.03687 0.238498,-0.03886 0.359641,-0.006 0.12117,0.03288 0.194725,0.102371 0.221362,0.207649 0.01269,0.05015 0.0048,0.105501 -0.02344,0.166094 -0.02824,0.06059 -0.06728,0.0973 -0.117287,0.110232 -0.04092,0.01058 -0.0789,0.0044 -0.114019,-0.01848 -0.03643,-0.02791 -0.07323,-0.04767 -0.110396,-0.05928 -0.03391,-0.01781 -0.0773,-0.0064 -0.129911,0.03441 -0.13637,0.111271 -0.24741,0.29696 -0.330643,0.556244 -0.08327,0.263031 -0.171168,0.532985 -0.27969,0.869927 0.08855,0.04954 0.176755,0.0994 0.264622,0.149568 0.249845,0.143713 0.504695,0.309065 0.764168,0.496361 0.264243,0.186441 0.512764,0.358675 0.749784,0.517874 0.03209,0.01855 0.06152,0.0538 0.08828,0.105748 0.03104,0.05086 0.0522,0.09889 0.06357,0.144031 0.01769,0.07023 0.006,0.131804 -0.03471,0.184774 -0.03649,0.05191 -0.09188,0.08199 -0.16634,0.09048 -0.07023,0.0074 -0.143977,-0.01615 -0.221645,-0.07061 -0.09854,-0.06501 -0.186887,-0.132458 -0.264927,-0.202535 -0.07801,-0.07005 -0.170498,-0.14154 -0.277554,-0.21401 -0.09772,-0.07024 -0.212526,-0.155392 -0.348285,-0.257311 -0.132345,-0.107709 -0.265592,-0.214749 -0.399795,-0.321083 -0.134188,-0.106322 -0.254937,-0.186561 -0.361419,-0.241016 -0.01434,0.03121 -0.0337,0.08571 -0.05758,0.163087 -0.0239,0.07744 -0.0512,0.150605 -0.08189,0.219511 -0.02639,0.06758 -0.05013,0.104705 -0.07159,0.111363 0.03914,0.171637 0.07391,0.321065 0.103792,0.446869 0.03416,0.124732 0.0705,0.248789 0.108932,0.372189 0.03694,0.118578 0.08432,0.263308 0.142284,0.4349 0.02766,0.08887 0.01848,0.175604 -0.02671,0.260322 -0.04675,0.0798 -0.105132,0.128281 -0.175729,0.145675 -0.06811,0.01116 -0.121491,-0.0012 -0.16034,-0.03747 -0.03636,-0.04244 -0.07242,-0.117741 -0.107913,-0.225786 -0.04269,-0.143818 -0.102283,-0.339248 -0.178714,-0.586276 -0.07639,-0.247034 -0.160759,-0.518701 -0.253064,-0.814926 -0.08801,-0.297677 -0.177078,-0.592193 -0.267454,-0.883643 -0.08763,-0.298025 -0.168976,-0.570092 -0.244691,-0.817606 -0.07732,-0.252513 -0.13888,-0.449281 -0.185451,-0.59217 -0.04649,-0.142626 -0.06543,-0.247807 -0.05663,-0.315924 0.01344,-0.06952 0.05886,-0.152163 0.136808,-0.247392 0.06553,-0.08592 0.135269,-0.07779 0.208058,0.024 0.07603,0.09555 0.152785,0.252876 0.230907,0.47234 0.08274,0.218067 0.164266,0.46585 0.2454,0.743941 0.0856,0.276569 0.168938,0.553835 0.250176,0.831755 0.03843,-0.10936 0.07711,-0.242805 0.116731,-0.400672 0.04404,-0.15912 0.08845,-0.312738 0.132901,-0.460564 0.04748,-0.154076 0.09351,-0.275293 0.137002,-0.363105 0.08086,-0.163253 0.177091,-0.311493 0.288398,-0.444436 0.115879,-0.134203 0.261337,-0.227546 0.43499,-0.279093 7e-6,0 1.4e-5,0 2.1e-5,0 z m 2.312911,2.642367 c 0.01529,0.08677 0.02686,0.177025 0.03478,0.27079 0.01106,0.08773 0.0259,0.171946 0.04446,0.252646 0.118654,0.535662 0.242339,1.072785 0.370661,1.611546 -0.01818,0.168736 -0.0705,0.233774 -0.157906,0.195645 -0.08208,-0.03404 -0.181227,-0.186241 -0.298407,-0.456261 -0.111567,-0.265389 -0.223227,-0.654988 -0.332007,-1.165647 -0.03548,-0.167077 -0.07756,-0.361849 -0.126231,-0.584297 -0.04553,-0.228535 -0.09248,-0.454028 -0.140976,-0.676538 -0.0497,-0.227644 -0.09425,-0.424253 -0.133915,-0.590455 -0.04325,-0.181244 -0.04717,-0.315871 -0.01132,-0.404216 0.0358,-0.08822 0.135516,-0.167776 0.29937,-0.237395 0.06437,-0.296337 0.161724,-0.498907 0.290141,-0.607091 0.131759,-0.114186 0.341984,-0.157875 0.628021,-0.128495 0.254494,0.01486 0.496824,0.07869 0.726302,0.190826 0.228486,0.107078 0.438353,0.268873 0.629563,0.484792 0.136475,0.126379 0.250641,0.29681 0.342823,0.511094 0.09218,0.214269 0.162202,0.43548 0.210532,0.663468 0.05275,0.227111 0.0846,0.429339 0.09581,0.60644 0.02388,0.385771 -0.120179,0.653053 -0.428621,0.804126 -0.188391,0.07444 -0.372482,0.09856 -0.553552,0.07245 -0.1757,-0.02192 -0.350639,-0.07249 -0.525533,-0.151592 -0.163012,-0.08692 -0.316357,-0.188692 -0.460134,-0.305401 -0.143695,-0.116642 -0.311653,-0.235833 -0.503817,-0.356403 -1.3e-5,-10e-6 -2.5e-5,-1.9e-5 -3.7e-5,-2.8e-5 z M 41.205095,13.89923 c 0.05372,0.237242 0.1557,0.450344 0.304172,0.639904 0.15175,0.183543 0.317771,0.343168 0.497936,0.478978 0.183524,0.129873 0.352869,0.23151 0.509106,0.304688 0.09651,0.04859 0.196215,0.08082 0.299292,0.09669 0.103081,0.01587 0.202594,0.0036 0.29889,-0.03689 0.105026,-0.04224 0.175675,-0.09848 0.211787,-0.168988 0.0351,-0.07557 0.04563,-0.172665 0.03142,-0.291257 -0.01721,-0.133793 -0.05797,-0.294763 -0.122562,-0.482557 -0.06018,-0.188705 -0.135002,-0.369251 -0.224741,-0.541498 -0.08529,-0.173151 -0.178402,-0.302415 -0.279364,-0.38777 -0.313811,-0.264373 -0.65453,-0.413843 -1.01985,-0.446553 -0.138166,-0.02858 -0.231378,-1.77e-4 -0.278868,0.08444 -0.04864,0.07963 -0.06501,0.197225 -0.04931,0.352845 0.0067,0.07274 0.0096,0.127793 0.0085,0.165151 -0.0011,0.03736 -0.01663,0.07264 -0.04664,0.105856 -0.02676,0.02726 -0.07326,0.06936 -0.139779,0.126946 -2e-6,5e-6 -4e-6,10e-6 -5e-6,1.6e-5 z m 4.467932,1.11191 c -0.197599,0.03533 -0.388139,0.01102 -0.572017,-0.07297 -0.01458,-0.0067 -0.02911,-0.0137 -0.04361,-0.02112 -0.197686,-0.105784 -0.356417,-0.284449 -0.476164,-0.535981 -0.03181,-0.07307 -0.06588,-0.145734 -0.102205,-0.217971 -0.03281,-0.07815 -0.06917,-0.150383 -0.10909,-0.216687 -0.149794,-0.26175 -0.169647,-0.539834 -0.05692,-0.834326 0.09872,-0.234645 0.216925,-0.424413 0.354131,-0.569211 0,0 0,0 0,0 0.0062,-0.0066 0.0125,-0.01308 0.0188,-0.01948 0.148617,-0.153089 0.320758,-0.241875 0.515982,-0.266209 0.214077,-0.04872 0.415708,-0.0371 0.604502,0.03474 0.188804,0.07184 0.367482,0.179791 0.535943,0.323772 0.224898,0.202436 0.360317,0.438972 0.40702,0.709142 0.04318,0.249803 0.0063,0.489785 -0.110028,0.720044 -0.117245,0.251431 -0.254064,0.467056 -0.410545,0.646951 -0.157384,0.174808 -0.342505,0.281174 -0.555808,0.319307 z m -0.0951,-0.41661 c 0.06233,-0.01115 0.134777,-0.05561 0.217471,-0.13337 0.08715,-0.07855 0.170351,-0.166843 0.249636,-0.264895 0.0793,-0.09806 0.138168,-0.181926 0.176562,-0.251709 0.05535,-0.078 0.08487,-0.172455 0.08851,-0.283384 0.0072,-0.116817 0.0042,-0.213432 -0.0092,-0.289884 -0.01692,-0.09683 -0.05443,-0.192694 -0.112595,-0.287559 -0.05458,-0.100747 -0.115949,-0.174032 -0.184106,-0.219848 -0.114788,-0.07439 -0.228343,-0.127933 -0.340598,-0.160618 -0.113155,-0.03778 -0.221418,-0.04745 -0.324677,-0.02905 -0.07632,0.0136 -0.15216,0.04293 -0.227463,0.08797 -0.07082,0.04424 -0.141977,0.112231 -0.213393,0.203976 -0.04882,0.05461 -0.08913,0.11596 -0.120932,0.184027 -0.0084,0.01787 -0.01611,0.0362 -0.02329,0.055 -0.03003,0.08958 -0.03897,0.167481 -0.02694,0.233661 0.01018,0.056 0.04095,0.110884 0.09225,0.164671 0.01413,0.01481 0.03018,0.02967 0.04817,0.04458 0,0 0,0 0,0 0.04736,0.03924 0.108078,0.07883 0.182154,0.118805 0.0099,0.0035 0.01886,0.01502 0.02699,0.03456 0.0082,0.01956 0.02215,0.04595 0.04194,0.07918 -0.03649,0.130126 -0.07289,0.260259 -0.10919,0.3904 0.102211,0.0814 0.20386,0.160315 0.304959,0.236752 0.100184,0.07134 0.188047,0.100267 0.263732,0.08673 1e-6,-1e-6 2e-6,-2e-6 2e-6,-3e-6 z m 3.906391,0.418606 c -0.1447,-0.01826 -0.271634,-0.08126 -0.380918,-0.18907 -0.104822,-0.108541 -0.185023,-0.247345 -0.240503,-0.416441 -0.138943,-0.396499 -0.199824,-0.79016 -0.181678,-1.181208 0.02263,-0.391778 0.09966,-0.776762 0.231657,-1.154898 0.0567,-0.161348 0.09011,-0.282074 0.100119,-0.362365 0.01367,-0.0861 -0.0029,-0.159401 -0.04981,-0.219881 -0.04773,-0.06557 -0.130814,-0.148994 -0.249314,-0.250101 -0.220988,-0.18915 -0.458399,-0.320372 -0.712049,-0.393536 -0.254489,-0.07826 -0.515331,-0.136811 -0.782423,-0.175568 -0.04243,-0.0033 -0.08906,0.0098 -0.13987,0.03944 -0.04628,0.02884 -0.09106,0.03909 -0.134363,0.03075 -0.06313,-0.01549 -0.127586,-0.03861 -0.193374,-0.06934 -0.06579,-0.03074 -0.131168,-0.0589 -0.196134,-0.0845 0.0492,-0.06618 0.09531,-0.137069 0.138314,-0.212655 0.04301,-0.07559 0.09269,-0.126049 0.148988,-0.151382 0.06536,-0.02687 0.13918,-0.03155 0.221394,-0.014 0.08222,0.01755 0.161704,0.03297 0.238479,0.04625 0.35412,0.05571 0.694731,0.158922 1.021542,0.309444 0.325982,0.145423 0.645617,0.355255 0.958609,0.629424 0.215905,-0.438583 0.467858,-0.832778 0.755672,-1.182435 0.291515,-0.3554717 0.662822,-0.6235641 1.113173,-0.8035585 0.05284,0.086021 0.105658,0.1720542 0.158441,0.2580983 -0.138173,0.1261481 -0.27475,0.2469161 -0.409742,0.3622964 -0.130469,0.114674 -0.249765,0.2407798 -0.357867,0.3782888 -0.157228,0.208106 -0.308017,0.425823 -0.452327,0.653137 -0.145125,0.222206 -0.281919,0.451082 -0.41038,0.686616 -0.02414,0.05105 -0.02345,0.126915 0.002,0.227612 0.02915,0.09486 0.05889,0.17915 0.08922,0.252862 0.119289,0.310901 0.209132,0.626572 0.269796,0.946915 0.06066,0.320353 0.08542,0.646455 0.07463,0.978301 -0.0031,0.09481 -0.0155,0.188508 -0.03723,0.281091 -0.02173,0.09258 -0.04566,0.185526 -0.07178,0.278832 -0.04183,0.137765 -0.10207,0.260188 -0.1807,0.367293 -0.07864,0.107111 -0.192435,0.151833 -0.341582,0.134305 -6e-6,-9e-6 -1.1e-5,-1.8e-5 -1.7e-5,-2.7e-5 z m 0.03603,-0.493383 c 0.100759,-0.252331 0.152391,-0.49915 0.154514,-0.740589 0.0013,-0.246532 -0.02497,-0.493832 -0.07899,-0.741871 -0.05485,-0.253143 -0.119119,-0.507387 -0.192873,-0.762698 -0.09648,0.172906 -0.165298,0.372817 -0.206506,0.599717 -0.04204,0.22179 -0.05841,0.444647 -0.04926,0.668568 0.01362,0.223178 0.05121,0.424104 0.112595,0.602753 0.06501,0.172816 0.151872,0.297514 0.260525,0.374119 0,0 -10e-7,10e-7 -2e-6,10e-7 z m 4.549553,-0.686203 c -0.21501,0.03217 -0.438262,0.03959 -0.669883,0.02231 -0.22792,-0.02307 -0.408937,-0.06876 -0.543128,-0.137246 -0.18443,-0.09745 -0.325494,-0.224964 -0.423138,-0.382689 -0.09843,-0.162837 -0.161494,-0.33371 -0.18905,-0.512671 -0.02441,-0.158509 -0.02598,-0.317917 -0.0046,-0.478228 0.02584,-0.161004 0.0672,-0.311292 0.1241,-0.450863 0.02659,-0.06688 0.04949,-0.127954 0.06867,-0.183231 0.02291,-0.06108 0.03046,-0.117181 0.02264,-0.168324 -0.0078,-0.05114 -0.0314,-0.09987 -0.07077,-0.146185 -0.03936,-0.04631 -0.08854,-0.09636 -0.147523,-0.150117 -0.03783,-0.03607 -0.07272,-0.08306 -0.104686,-0.140955 -0.02746,-0.05859 -0.04591,-0.118563 -0.05534,-0.179926 -0.01021,-0.06648 -0.009,-0.118996 0.0035,-0.157565 0.02471,-0.139877 0.07685,-0.297064 0.15653,-0.471494 0.07968,-0.174436 0.180995,-0.3442869 0.303996,-0.5095114 0.123,-0.1652236 0.259088,-0.3061895 0.408195,-0.4228641 0.152862,-0.1224722 0.313163,-0.1962581 0.480722,-0.2213335 0.0264,-0.00921 0.05319,-0.015844 0.08036,-0.019904 0.02641,-0.0092 0.05546,-0.016172 0.08716,-0.020903 0.0951,-0.014194 0.177018,-0.00808 0.245732,0.018317 0.06491,8.073e-4 0.112479,0.025129 0.142704,0.072947 0.03475,0.047147 0.04082,0.1037809 0.01823,0.169899 -0.01804,0.065443 -0.07379,0.1260176 -0.167216,0.1817716 -0.08214,0.038384 -0.179746,0.066014 -0.292834,0.082925 -0.113087,0.016911 -0.21104,0.05776 -0.293811,0.1225137 -0.127912,0.1029286 -0.248574,0.2074533 -0.361989,0.3135592 -0.108893,0.10542 -0.210693,0.272616 -0.305204,0.501556 -0.03425,0.07848 -0.04435,0.163748 -0.03032,0.25581 0.01091,0.0716 0.03831,0.130227 0.08217,0.175881 0.04386,0.04565 0.0951,0.06402 0.153715,0.05512 0.01353,-0.0021 0.03755,-0.01093 0.07207,-0.02663 0.09454,-0.04573 0.197787,-0.09538 0.309651,-0.148864 0.111882,-0.0535 0.23101,-0.08973 0.357338,-0.108675 0.06163,-0.0197 0.128252,-0.0061 0.19982,0.04071 0.0708,0.04173 0.126178,0.08839 0.166138,0.139972 0.03393,0.04202 0.05355,0.08094 0.05889,0.116762 0.01373,0.09212 -0.05262,0.172595 -0.198925,0.24156 -0.141813,0.06829 -0.306512,0.121776 -0.494155,0.160539 -0.103601,0.01563 -0.196133,0.07409 -0.277506,0.175381 -0.08215,0.09618 -0.151737,0.214023 -0.208745,0.353531 -0.05251,0.138823 -0.08764,0.28548 -0.105437,0.439968 -0.0133,0.153799 -0.0053,0.2965 0.02402,0.428093 0.03711,0.182738 0.137092,0.311367 0.299848,0.386036 0.161983,0.06956 0.367734,0.0959 0.617433,0.07922 0.249704,-0.01668 0.524337,-0.06565 0.824125,-0.146811 0.02016,-0.01868 0.0613,-0.01957 0.123431,-0.0026 0.06662,0.01627 0.128016,0.04379 0.184186,0.08255 0.0599,0.03298 0.09362,0.07507 0.101187,0.126251 0.0121,0.08189 -0.02256,0.141923 -0.103957,0.180122 -0.06416,0.0618 -0.1567,0.117354 -0.277608,0.166719 -0.11719,0.04358 -0.247441,0.07607 -0.39078,0.09752 1.6e-5,2.5e-5 3.3e-5,5e-5 5e-5,7.4e-5 z m 3.170323,-0.981062 c -0.138981,0.150565 -0.27555,0.285163 -0.40974,0.403791 -0.130438,0.112862 -0.27191,0.180316 -0.42451,0.202392 -0.139136,0.02013 -0.275204,-0.002 -0.408296,-0.06626 -0.133833,-0.06942 -0.250124,-0.175339 -0.348888,-0.317782 -0.06809,-0.0894 -0.134331,-0.213063 -0.198744,-0.370965 -0.06067,-0.163679 -0.116133,-0.338581 -0.166373,-0.524696 -0.05025,-0.18612 -0.09489,-0.365208 -0.133918,-0.537281 -0.03528,-0.177859 -0.06155,-0.325637 -0.07882,-0.443385 -0.01427,-0.09726 -0.02402,-0.195189 -0.02927,-0.293776 -0.0052,-0.09859 -0.0037,-0.198166 0.0046,-0.298739 0.01586,-0.20626 0.0938,-0.319658 0.23377,-0.340096 0.0903,-0.01319 0.166994,0.0227 0.230059,0.107629 0.06232,0.07981 0.08476,0.154979 0.06738,0.225476 -0.01217,0.106342 -0.01756,0.211698 -0.01617,0.316068 0.0059,0.103713 0.0163,0.206769 0.03122,0.309168 0.01492,0.102408 0.03918,0.237415 0.07279,0.405071 0.03737,0.161875 0.07734,0.325981 0.119931,0.492325 0.04183,0.161222 0.08369,0.29108 0.125548,0.38956 0.0284,0.06907 0.06354,0.13716 0.105412,0.204276 0.04562,0.06134 0.09048,0.117572 0.134594,0.168685 0.07775,0.09329 0.145798,0.135716 0.204193,0.127269 0.02696,-0.0039 0.073,-0.0184 0.138173,-0.04349 0.06443,-0.03021 0.109019,-0.05494 0.133766,-0.07419 0.143973,-0.11485 0.264135,-0.252345 0.360481,-0.412527 0.09634,-0.160179 0.159925,-0.357455 0.190707,-0.59184 0.03078,-0.234373 0.02018,-0.517744 -0.03191,-0.850032 -0.0037,-0.02561 -0.01098,-0.07684 -0.02196,-0.153667 -0.01098,-0.07683 -0.02043,-0.159113 -0.02834,-0.246839 -0.0086,-0.09285 -0.01322,-0.173208 -0.01374,-0.241085 0.0033,-0.07365 0.0136,-0.114319 0.03092,-0.12202 0.05269,-0.01798 0.116667,-0.03756 0.191929,-0.05874 0.07977,-0.02182 0.139541,-0.02249 0.179287,-0.002 0.02999,0.01664 0.05496,0.06273 0.07491,0.138298 0.02446,0.07492 0.0436,0.161045 0.05744,0.25838 0.01384,0.09733 0.02279,0.192749 0.02689,0.286242 0.0078,0.08773 0.01281,0.154969 0.01488,0.201712 0.0021,0.370764 -0.02816,0.706961 -0.09079,1.008566 -0.05813,0.300968 -0.16727,0.549122 -0.327348,0.744519 -1.3e-5,10e-7 -2.7e-5,2e-6 -4e-5,4e-6 z m -2.08968,-2.9522038 c -0.0474,-0.040132 -0.08274,-0.092479 -0.106037,-0.1570472 -0.01877,-0.06523 -0.01647,-0.1283163 0.0069,-0.1892608 0.04156,-0.1263499 0.08127,-0.2497976 0.119128,-0.3703595 0.03711,-0.1256786 0.07463,-0.2487954 0.112556,-0.3693488 2.84e-4,-9.031e-4 0.113591,-0.3607487 0.113875,-0.3616517 3.74e-4,-0.00107 0.127291,-0.3625392 0.127664,-0.3636046 0.04407,-0.1109553 0.109897,-0.1518639 0.1974,-0.1226954 0.09657,0.027856 0.168082,0.090722 0.214564,0.1885671 0.04574,0.092725 0.04317,0.1871951 -0.0077,0.2834052 -0.110718,0.1937365 -0.200988,0.400239 -0.27083,0.6194983 -0.07058,0.214136 -0.145958,0.4263746 -0.226109,0.6367301 -0.01216,0.074971 -0.04878,0.1404304 -0.109829,0.1963927 -0.05728,0.050184 -0.114484,0.053311 -0.171664,0.00938 10e-7,-2.1e-6 2e-6,-4.3e-6 3e-6,-6.4e-6 z m 3.98574,4.2510838 c -0.03505,-0.0212 -0.06776,-0.0584 -0.09816,-0.111596 -0.03039,-0.0532 -0.04696,-0.105734 -0.04969,-0.157607 -0.01557,-0.175476 -0.03619,-0.38682 -0.06185,-0.634033 -0.02566,-0.247212 -0.05385,-0.51236 -0.08455,-0.795442 -6e-5,-5.57e-4 -0.09201,-0.848694 -0.09207,-0.849251 -0.02618,-0.283727 -0.05206,-0.549184 -0.07767,-0.796412 3.32e-4,0.0039 -0.05414,-0.631236 -0.05381,-0.627328 0,0 -0.0042,-0.04644 -0.01267,-0.139306 -0.0047,-0.098626 -0.01188,-0.2151875 -0.02159,-0.3496835 -0.0097,-0.1344976 -0.02025,-0.2584252 -0.03159,-0.3717915 -0.01132,-0.1133697 -0.02141,-0.1851035 -0.03028,-0.2152108 -0.03537,-0.1204354 -0.03434,-0.227701 0.0031,-0.3218077 0.03674,-0.099229 0.09256,-0.1776212 0.167446,-0.2351691 0.08629,-0.074824 0.17064,-0.081433 0.253005,-0.019831 0.08165,0.056483 0.137275,0.1740926 0.166905,0.3528234 0.02123,0.085855 0.04261,0.2056471 0.06413,0.3593884 0.02606,0.1531046 0.05129,0.3167736 0.07568,0.491013 0.02367,0.1691121 0.04854,0.3302221 0.07459,0.4833261 0.02534,0.147979 0.05085,0.264586 0.07655,0.349814 0.06548,0.20506 0.161081,0.395463 0.286739,0.571222 0.06319,0.09044 0.140556,0.134498 0.232126,0.13217 0.09157,-0.0023 0.183352,-0.03602 0.275377,-0.101088 0.09653,-0.06569 0.188909,-0.177814 0.277166,-0.336371 0.09205,-0.16431 0.169553,-0.334417 0.232484,-0.510334 0.0062,-0.02175 0.0018,-0.08645 -0.01315,-0.19409 -0.01112,-0.113392 -0.02926,-0.2440981 -0.05442,-0.392111 L 60.57608,9.2713545 c -0.02205,-0.1588959 -0.03935,-0.3001633 -0.05188,-0.4238097 -0.01254,-0.1236465 -0.01263,-0.2072231 -2.75e-4,-0.2507339 0.05521,-0.2323137 0.128119,-0.3207917 0.21864,-0.2654267 0.09433,0.049613 0.18204,0.2176947 0.263129,0.5042475 0.08038,0.2814368 0.125752,0.6591069 0.136221,1.1330738 0.0047,0.1665285 0.02882,0.3408065 0.07241,0.5228415 0.04811,0.181407 0.118524,0.341445 0.211232,0.480113 0.09651,0.132918 0.218533,0.217908 0.366078,0.254977 0.05242,0.01365 0.118015,0.02287 0.19678,0.02766 0.07876,0.0048 0.144841,8.89e-4 0.198234,-0.01171 0.0617,-0.01896 0.116513,-0.02131 0.164427,-0.007 0.04721,0.0092 0.08288,0.05125 0.107013,0.126281 0.01821,0.0654 0.01733,0.125595 -0.0026,0.180589 -0.01618,0.04925 -0.05476,0.08591 -0.115742,0.109999 -0.161127,0.06403 -0.324092,0.08131 -0.488925,0.05186 -0.164833,-0.02946 -0.312576,-0.08476 -0.443243,-0.165934 -0.138971,-0.07479 -0.246642,-0.172194 -0.323007,-0.292215 -0.07185,-0.120645 -0.144668,-0.264665 -0.218447,-0.432057 -0.0451,0.105521 -0.08829,0.208166 -0.129576,0.307939 -0.04128,0.09977 -0.09524,0.190858 -0.161886,0.273264 -0.04316,0.05302 -0.09912,0.113045 -0.167882,0.180084 -0.06425,0.06641 -0.141536,0.121578 -0.231858,0.165515 -0.08582,0.04331 -0.182664,0.05682 -0.290565,0.04053 -0.107903,-0.01629 -0.229003,-0.07773 -0.363354,-0.184329 -0.07762,-0.06229 -0.155053,-0.155943 -0.232313,-0.280968 -0.07274,-0.125646 -0.126625,-0.214777 -0.161575,-0.26734 0.01859,0.148925 0.03717,0.297849 0.05576,0.446774 0.0072,0.05125 0.01491,0.138985 0.02316,0.263237 0.01273,0.123624 0.02576,0.265484 0.03907,0.425602 -4e-6,-3.6e-5 0.05448,0.486179 0.05447,0.486143 0.01778,0.159489 0.03306,0.301039 0.04585,0.42465 0.01275,0.123616 0.02498,0.210733 0.03669,0.26134 0.02985,0.147339 0.05053,0.262014 0.06204,0.344 0.01603,0.08136 0.0076,0.184428 -0.02531,0.309228 -0.0176,0.0704 -0.05416,0.119947 -0.109664,0.148647 -0.05479,0.03383 -0.112363,0.03148 -0.172748,-0.0071 -3.6e-5,6e-6 -7.3e-5,1.2e-5 -1.09e-4,1.8e-5 z m 7.183283,-2.334629 c -0.08576,0.01187 -0.172097,0.0029 -0.259003,-0.02687 -0.08239,-0.03041 -0.160843,-0.08225 -0.235347,-0.155548 -0.08562,-0.08739 -0.15532,-0.158825 -0.208893,-0.214073 -0.04981,-0.06104 -0.09735,-0.122386 -0.142642,-0.184047 -0.04529,-0.06166 -0.106938,-0.141961 -0.184944,-0.240906 -8.04e-4,-0.0013 -0.06141,-0.09981 -0.06222,-0.10112 -0.0199,-0.04427 -0.05093,-0.102677 -0.09311,-0.175219 -0.05944,0.102223 -0.111636,0.190401 -0.156572,0.264503 -0.04494,0.07411 -0.08727,0.150465 -0.126998,0.229075 -0.08184,0.173222 -0.177089,0.332614 -0.285731,0.478179 -0.104838,0.139816 -0.222363,0.270927 -0.352568,0.393336 -0.100044,0.107808 -0.2113,0.167532 -0.333762,0.179173 -0.123168,0.0065 -0.238446,-0.02984 -0.345845,-0.109082 -0.103595,-0.08498 -0.185081,-0.209577 -0.24446,-0.373782 -0.0766,-0.255861 -0.121078,-0.495254 -0.133417,-0.718178 -0.01233,-0.222927 1.33e-4,-0.449268 0.03741,-0.679029 0.03657,-0.234891 0.09097,-0.4905079 0.163201,-0.7668773 0.08054,-0.282731 0.164699,-0.5058907 0.252457,-0.669467 0.09156,-0.1693269 0.21406,-0.3141808 0.367475,-0.434568 0.248377,-0.1648117 0.496388,-0.1650298 0.744123,-6.806e-4 0.02537,0.017395 0.05546,0.052425 0.09028,0.1050889 0.03412,0.047534 0.06315,0.074872 0.0871,0.082015 0.106511,0.0062 0.185245,0.011009 0.236248,0.014425 0.05099,0.00341 0.08573,0.022122 0.104205,0.056142 0.02228,0.028271 0.04014,0.091106 0.05359,0.1885036 0.0021,0.015376 0.0047,0.067263 0.0077,0.1556572 0.0068,0.082647 0.01242,0.1732923 0.01687,0.2719342 0.0082,0.092901 0.01585,0.1649813 0.02293,0.2162455 0.03538,0.2563174 0.09711,0.5037766 0.185203,0.7423676 0.0919,0.232839 0.204107,0.462881 0.336651,0.690097 0.09865,0.148317 0.192851,0.247614 0.282581,0.297895 0.09424,0.04965 0.191011,0.06761 0.290295,0.05386 0.009,-0.0012 0.03575,-0.0076 0.08016,-0.01898 0.04822,-0.01713 0.09454,-0.03138 0.138964,-0.04276 0.04442,-0.01141 0.06436,-0.0168 0.05985,-0.01617 0.04964,-0.0069 0.09655,-3.29e-4 0.140727,0.01966 0.04346,0.01487 0.08075,0.05149 0.111854,0.109868 0.0482,0.08213 0.03904,0.148706 -0.0275,0.199735 -0.06654,0.05103 -0.160047,0.09012 -0.280509,0.117261 -0.115947,0.02651 -0.228088,0.04726 -0.336416,0.06225 1.7e-5,2.8e-5 3.4e-5,5.5e-5 5.1e-5,8.2e-5 z M 63.804052,11.67786 c 0.03833,-0.0053 0.07666,-0.01056 0.114997,-0.01584 0.197564,-0.100341 0.362577,-0.253663 0.495014,-0.459966 0.131731,-0.211431 0.234058,-0.452765 0.30697,-0.724011 0.07742,-0.271869 0.124097,-0.549943 0.140034,-0.8342368 C 64.871693,9.4542826 64.84751,9.2956727 64.788532,9.1679833 64.733379,9.034543 64.631111,8.9258794 64.481728,8.8419907 64.218618,9.0663162 64.0133,9.3270463 63.865823,9.6242267 63.72215,9.9156593 63.631472,10.241568 63.593801,10.60198 c -0.02685,0.238771 -0.03314,0.443365 -0.01885,0.613783 0.01428,0.170417 0.09064,0.324454 0.22907,0.462101 1.2e-5,-10e-7 2.3e-5,-3e-6 3.4e-5,-4e-6 z m 6.195587,-0.266278 c -0.203342,0.02887 -0.387716,0.02883 -0.553069,-7.1e-5 -0.165359,-0.0289 -0.319835,-0.111653 -0.463387,-0.248226 -0.121885,-0.113491 -0.217709,-0.238509 -0.287506,-0.375021 -0.06528,-0.137148 -0.122598,-0.283256 -0.171955,-0.438321 -0.04485,-0.155697 -0.09491,-0.315888 -0.150181,-0.4805778 C 68.310165,9.6796868 68.256547,9.4938585 68.212673,9.3118944 68.16808,9.124804 68.137015,8.9358181 68.119453,8.744941 c -0.01648,-0.1831908 -0.03297,-0.3663809 -0.04946,-0.5495703 -0.06426,-0.0328 -0.126715,-0.052793 -0.187379,-0.059978 -0.06138,-0.012309 -0.121686,-0.01694 -0.180919,-0.013894 -0.113963,0.00548 -0.223889,0.023447 -0.329791,0.053914 -0.101402,0.029812 -0.204602,0.046814 -0.309589,0.051004 -0.09599,0.00291 -0.16781,-0.018452 -0.215462,-0.064073 -0.04765,-0.045622 -0.06829,-0.095002 -0.0619,-0.1481355 0.0057,-0.058258 0.04049,-0.1048932 0.104453,-0.1399136 0.06396,-0.035015 0.131236,-0.062663 0.201823,-0.082946 0.06987,-0.025402 0.140098,-0.048249 0.210672,-0.068544 0.07436,-0.026041 0.171924,-0.050099 0.292691,-0.072195 0.120062,-0.027223 0.279378,-0.052124 0.478011,-0.074774 0.203218,-0.023237 0.466018,-0.044471 0.788917,-0.063927 0.06367,-0.00373 0.129575,-0.00782 0.197721,-0.012253 0.06816,-0.00438 0.134418,-0.00592 0.198791,-0.00462 0.140787,-0.00949 0.28453,-0.014211 0.431243,-0.014171 0.145982,-0.00509 0.269427,0.00867 0.370368,0.041295 0.100934,0.032628 0.15013,0.1039969 0.147537,0.2141398 0.0042,0.093488 -0.02893,0.1504996 -0.0994,0.1710179 -0.06597,0.019873 -0.150252,0.024058 -0.252818,0.012535 -0.103297,-0.016652 -0.209626,-0.02244 -0.319003,-0.017364 -0.109376,0.00508 -0.217303,0.020371 -0.323795,0.045892 -0.102747,0.019794 -0.257934,0.057411 -0.465812,0.1128105 -0.05488,0.033864 -0.0941,0.081192 -0.117665,0.1419893 -0.02357,0.060799 -0.03481,0.1277013 -0.03372,0.2007086 -0.0054,0.1575235 0.01002,0.3487167 0.04624,0.5735498 0.03552,0.2197065 0.08597,0.4477725 0.151397,0.6841739 0.06995,0.2357667 0.149404,0.4571276 0.238373,0.6640796 0.09276,0.201192 0.191791,0.364906 0.297094,0.491143 0.105476,0.09485 0.194642,0.155414 0.26745,0.181694 0.07733,0.02564 0.140836,0.03494 0.190513,0.0279 0.01484,-0.0021 0.11387,-0.01615 0.128709,-0.01826 0.07678,-0.0109 0.147945,-0.02885 0.213502,-0.05385 0.06483,-0.03013 0.129214,-0.04713 0.19317,-0.05102 0.06323,-0.009 0.126316,0.01335 0.189294,0.06707 0.07042,0.07358 0.08332,0.147524 0.03863,0.221863 -0.04544,0.06921 -0.09871,0.116018 -0.159784,0.140409 -0.08367,0.02761 -0.161662,0.04655 -0.233964,0.05683 -0.02075,0.0029 -0.135152,0.0192 -0.155899,0.02215 -1.6e-5,-1.3e-5 -3.2e-5,-2.6e-5 -4.8e-5,-3.9e-5 z m 4.194579,-0.72085 c -0.08589,0.01289 -0.172581,0.0049 -0.260051,-0.02384 -0.08295,-0.02946 -0.162156,-0.08042 -0.237599,-0.152881 -0.08664,-0.08635 -0.157384,-0.157193 -0.211537,-0.211781 -0.05052,-0.0605 -0.09876,-0.12134 -0.144736,-0.182523 -0.04599,-0.0612 -0.108489,-0.1408177 -0.187559,-0.2389843 -0.05907,-0.093836 -0.0042,-0.00665 -0.06326,-0.1004854 -0.02034,-0.044072 -0.05196,-0.1021545 -0.09486,-0.1742783 -0.05851,0.1027706 -0.109976,0.1914622 -0.15429,0.2659635 -0.04432,0.07452 -0.08604,0.1512615 -0.12515,0.2302275 -0.08047,0.173955 -0.174581,0.334188 -0.282328,0.480685 -0.103978,0.140715 -0.220832,0.272809 -0.350557,0.396261 -0.09958,0.108608 -0.210809,0.169201 -0.333596,0.181756 -0.12353,0.0074 -0.239416,-0.02811 -0.347604,-0.106606 -0.104411,-0.08427 -0.186821,-0.208332 -0.247265,-0.372153 -0.07822,-0.255356 -0.124097,-0.494479 -0.137732,-0.717304 -0.01363,-0.2228364 -0.0025,-0.4492304 0.03338,-0.6791955 0.03512,-0.235102 0.08785,-0.4910005 0.158082,-0.7678029 0.07849,-0.2832079 0.16082,-0.5068784 0.247103,-0.6710277 0.09003,-0.1699219 0.211004,-0.3156063 0.362885,-0.4371174 0.246145,-0.1666367 0.493127,-0.1688901 0.741682,-0.00678 0.02546,0.017165 0.0558,0.051917 0.09104,0.1042538 0.03449,0.047213 0.06371,0.074279 0.08766,0.0812 0.106403,0.00523 0.184707,0.00926 0.235736,0.012193 0.05089,0.00292 0.08573,0.021283 0.104514,0.055112 0.02252,0.028043 0.041,0.090688 0.05545,0.1879266 0.0023,0.015347 0.0054,0.067205 0.0093,0.1555429 0.0076,0.082558 0.01421,0.1731289 0.01968,0.2717027 0.0092,0.0928 0.01754,0.1647831 0.02514,0.2159676 0.03799,0.2559066 0.102208,0.5026904 0.192779,0.7403199 0.09431,0.2318353 0.208996,0.4606449 0.344136,0.6863555 0.100367,0.1472 0.195819,0.245411 0.286285,0.294643 0.09498,0.04855 0.192173,0.06536 0.291524,0.05041 0.009,-0.0014 0.03574,-0.008 0.08012,-0.01995 0.04813,-0.01771 0.09439,-0.03254 0.138772,-0.04448 0.04438,-0.01196 0.06431,-0.01761 0.05979,-0.01692 0.04967,-0.0075 0.09675,-0.0016 0.141272,0.01786 0.04374,0.0143 0.08156,0.05043 0.11346,0.108393 0.04933,0.08148 0.04099,0.148165 -0.02513,0.200058 -0.0661,0.05189 -0.159418,0.09219 -0.279919,0.120833 -0.115981,0.02796 -0.228223,0.05008 -0.336709,0.06636 1.7e-5,2.7e-5 3.4e-5,5.4e-5 5.1e-5,8.1e-5 z m -2.523272,-0.11466 c 0.03838,-0.0056 0.07676,-0.01112 0.115145,-0.01669 0.197322,-0.101822 0.361543,-0.256472 0.492545,-0.463866 0.130258,-0.2125202 0.230643,-0.4547181 0.301185,-0.7265783 0.07505,-0.2725215 0.119117,-0.5509724 0.132342,-0.835357 0.0088,-0.189581 -0.01687,-0.3479421 -0.07695,-0.4750649 C 72.578889,7.925603 72.475817,7.8178855 72.326063,7.7352798 72.065721,7.9617751 71.863,8.224016 71.718026,8.5222303 c -0.141215,0.2924284 -0.229543,0.6189292 -0.264787,0.9795529 -0.02525,0.2389401 -0.03022,0.4435349 -0.01482,0.6138528 0.0154,0.170306 0.09284,0.323813 0.232492,0.460441 1.2e-5,-10e-7 2.3e-5,-3e-6 3.4e-5,-5e-6 z"
       id="text3"
       aria-label="μικρογεύματα"
       inkscape:path-effect="#path-effect3"
       inkscape:original-d="m 31.484004,23.560616 q -0.05433,-0.03881 -0.09313,-0.124178 -0.03881,-0.08537 -0.03104,-0.162983 0.01552,-0.263877 0.03104,-0.63641 0.01552,-0.372533 0.03104,-0.799393 0.01552,-0.426861 0.03105,-0.853721 0.02328,-0.426861 0.0388,-0.799394 0.02328,-0.372532 0.03881,-0.628649 0,0 0.0078,-0.1397 0.01552,-0.14746 0.03104,-0.349249 0.01552,-0.201789 0.02328,-0.372533 0.0078,-0.170744 0,-0.217311 -0.03104,-0.186266 0.05433,-0.318205 0.08537,-0.1397 0.225072,-0.209549 0.162983,-0.09313 0.287161,0.01552 0.124177,0.100894 0.131938,0.372533 0.01552,0.131938 0.01552,0.364771 0.0078,0.232833 0.0078,0.496711 0,0.256116 0.0078,0.488949 0.0078,0.225072 0.03104,0.357011 0.06209,0.318205 0.232833,0.605365 0.08537,0.147461 0.240594,0.162983 0.155222,0.01552 0.325966,-0.06209 0.178506,-0.07761 0.364772,-0.294922 0.194028,-0.225072 0.341489,-0.473427 0.01552,-0.03104 0.01552,-0.194028 0.0078,-0.170744 0,-0.395816 0,-0.232833 0,-0.465666 0,-0.240594 0.0078,-0.42686 0.0078,-0.186267 0.0388,-0.248356 0.147461,-0.333727 0.287161,-0.232833 0.147461,0.09313 0.217311,0.535516 0.06985,0.434622 -0.02328,1.140882 -0.03104,0.248355 0,0.527755 0.03881,0.279399 0.162983,0.504471 0.131938,0.217311 0.372532,0.302683 0.08537,0.03104 0.217311,0.05433 0.131939,0.02328 0.225072,0.01552 0.108656,-0.01552 0.186267,0.01552 0.07761,0.02328 0.100894,0.1397 0.01552,0.100894 -0.03104,0.178505 -0.03881,0.06985 -0.14746,0.09313 -0.287161,0.06209 -0.5588,-0.01552 -0.271638,-0.07761 -0.473427,-0.225072 -0.217311,-0.139699 -0.318205,-0.333727 -0.09313,-0.194027 -0.178505,-0.457905 -0.100894,0.147461 -0.194028,0.287161 -0.09313,0.1397 -0.225072,0.248355 -0.08537,0.06985 -0.21731,0.155222 -0.124178,0.08537 -0.287161,0.131939 -0.155222,0.04657 -0.333727,0 -0.178506,-0.04657 -0.380294,-0.232833 -0.116417,-0.108655 -0.217311,-0.310444 -0.09313,-0.201789 -0.1397,-0.287161 l -0.0078,0.450144 q 0,0.07761 -0.01552,0.263877 -0.0078,0.186267 -0.02328,0.426861 -0.0078,0.240594 -0.01552,0.488949 -0.0078,0.240594 -0.01552,0.426861 -0.0078,0.186266 0,0.263877 0.01552,0.225072 0.01552,0.34925 0.0078,0.124177 -0.07761,0.302682 -0.04657,0.100895 -0.14746,0.131939 -0.100895,0.03881 -0.194028,-0.03104 z m 7.419612,-2.180869 q 0.03104,0.170744 -0.03104,0.279399 -0.05433,0.108656 -0.147461,0.186267 -0.09313,0.07761 -0.162983,0.155222 -0.178506,0.170744 -0.442383,0.240594 -0.263877,0.06209 -0.504471,0.03104 -0.318206,-0.04657 -0.496711,-0.194027 -0.178505,-0.147461 -0.333727,-0.481189 -0.1397,-0.279399 -0.20955,-0.682976 -0.06985,-0.411339 -0.08537,-0.830438 -0.0078,-0.42686 0.02328,-0.737304 0.01552,-0.201789 0.04657,-0.395817 0.0388,-0.194027 0.108655,-0.388055 0.06985,-0.178505 0.108656,-0.310444 0.0388,-0.131938 0.186266,-0.116416 0.1397,0.01552 0.201789,0.108655 0.06985,0.09313 0.06985,0.20955 0,0.116417 -0.04657,0.201789 -0.08537,0.201788 -0.116416,0.411338 -0.02328,0.20955 -0.04657,0.411338 -0.02328,0.318205 0,0.70626 0.03104,0.380294 0.09313,0.698499 0.03881,0.147461 0.100894,0.372533 0.06209,0.217311 0.131939,0.341488 0.06209,0.100895 0.162983,0.162984 0.108656,0.05433 0.170744,0.06209 0.06209,0.0078 0.178506,-0.0078 0.116416,-0.01552 0.194027,-0.06209 0.34925,-0.240594 0.496711,-0.341488 0.147461,-0.100894 0.209549,-0.100894 0.06209,0 0.1397,0.06985 z m 2.809514,-2.925935 q 0.201789,-0.0078 0.380294,0.08537 0.178505,0.09313 0.178505,0.256116 0,0.07761 -0.06985,0.155222 -0.06985,0.07761 -0.155222,0.07761 -0.06985,0 -0.116416,-0.04657 -0.04657,-0.05433 -0.100894,-0.08537 -0.04657,-0.03881 -0.147461,0 -0.263878,0.108655 -0.512233,0.450144 -0.240594,0.333727 -0.56656,0.760587 l 0.240594,0.217311 q 0.341488,0.310444 0.690738,0.682977 0.35701,0.372533 0.690738,0.690738 0.04657,0.0388 0.06985,0.124177 0.03104,0.08537 0.03104,0.155222 0,0.108656 -0.09313,0.170745 -0.08537,0.06209 -0.217311,0.04657 -0.124178,-0.01552 -0.232833,-0.124177 -0.1397,-0.131939 -0.240594,-0.263878 -0.100894,-0.131939 -0.248355,-0.279399 -0.131939,-0.1397 -0.310444,-0.341489 -0.170744,-0.209549 -0.341489,-0.419099 -0.170744,-0.20955 -0.318205,-0.333727 -0.0388,0.0388 -0.116416,0.139699 -0.07761,0.100895 -0.162983,0.186267 -0.07761,0.08537 -0.116417,0.08537 -0.02328,0.263877 -0.03881,0.457905 -0.0078,0.194027 -0.0078,0.388055 0,0.186266 0.0078,0.457905 0,0.139699 -0.124178,0.240594 -0.124177,0.09313 -0.256116,0.08537 -0.124178,-0.01552 -0.170744,-0.08537 -0.03881,-0.07761 -0.03881,-0.248356 0.0078,-0.225071 0.01552,-0.613126 0.0078,-0.388055 0.01552,-0.853721 0.01552,-0.465666 0.02328,-0.923571 0.01552,-0.465666 0.02328,-0.853721 0.0078,-0.395816 0.0078,-0.620888 0,-0.225072 0.04657,-0.318205 0.05433,-0.09313 0.217311,-0.194028 0.139699,-0.09313 0.201788,0.08537 0.06985,0.170744 0.08537,0.519994 0.02328,0.349249 0.01552,0.783871 0,0.434622 -0.0078,0.869243 0.116417,-0.1397 0.256117,-0.349249 0.147461,-0.20955 0.28716,-0.403577 0.147461,-0.201789 0.256117,-0.310444 0.201788,-0.201789 0.434621,-0.34925 0.240594,-0.147461 0.535516,-0.155222 z m 1.816092,3.119962 q -0.0078,0.131939 -0.03104,0.271639 -0.01552,0.131938 -0.01552,0.256116 -0.0078,0.822677 0,1.653114 -0.100895,0.240594 -0.240594,0.155222 -0.131939,-0.07761 -0.225072,-0.512232 -0.08537,-0.426861 -0.06209,-1.210732 0.0078,-0.256116 0.01552,-0.597605 0.01552,-0.349249 0.02328,-0.690737 0.0078,-0.34925 0.0078,-0.605366 0,-0.2794 0.09313,-0.395816 0.09313,-0.116417 0.388055,-0.162983 0.217311,-0.411339 0.465666,-0.527755 0.256116,-0.124178 0.714021,0.0078 0.411338,0.100894 0.752827,0.333727 0.341488,0.225072 0.589843,0.597605 0.186267,0.225072 0.271639,0.56656 0.08537,0.341489 0.09313,0.690738 0.01552,0.349249 -0.02328,0.613127 -0.08537,0.574321 -0.667455,0.70626 -0.349249,0.05433 -0.651932,-0.03881 -0.294922,-0.08537 -0.566561,-0.256116 -0.248355,-0.178505 -0.450143,-0.395816 -0.201789,-0.217311 -0.481189,-0.457905 z m 0.162983,-1.195209 q 0,0.364772 0.178506,0.690738 0.186266,0.318205 0.442382,0.574321 0.263878,0.248355 0.504472,0.403577 0.147461,0.100895 0.318205,0.155222 0.170744,0.05433 0.34925,0.02328 0.194027,-0.03104 0.279399,-0.124178 0.08537,-0.100894 0.100894,-0.2794 0.01552,-0.201788 -0.03104,-0.49671 -0.0388,-0.294922 -0.131939,-0.574321 -0.08537,-0.2794 -0.225072,-0.434622 -0.434621,-0.481188 -1.024465,-0.644171 -0.217311,-0.08537 -0.325966,0.02328 -0.108655,0.100894 -0.1397,0.333727 -0.01552,0.108656 -0.03104,0.162983 -0.01552,0.05433 -0.07761,0.09313 -0.05433,0.03104 -0.186267,0.09313 z m 4.773077,1.955797 q -0.372533,0 -0.675216,-0.201789 -0.302683,-0.209549 -0.42686,-0.613127 -0.03104,-0.116416 -0.06985,-0.232833 -0.03104,-0.124177 -0.07761,-0.232832 -0.170744,-0.426861 0.108655,-0.830438 0.248356,-0.333727 0.535516,-0.512233 0.294922,-0.186266 0.628649,-0.170744 0.372533,-0.01552 0.667455,0.1397 0.294922,0.155222 0.535516,0.411338 0.318205,0.357011 0.318205,0.768349 0,0.380294 -0.263878,0.690738 -0.271638,0.341488 -0.589843,0.56656 -0.318205,0.217311 -0.690739,0.217311 z m -0.02328,-0.426861 q 0.108655,0 0.271638,-0.09313 0.170744,-0.09313 0.333727,-0.217311 0.162984,-0.124177 0.248356,-0.21731 0.116416,-0.100895 0.155222,-0.263878 0.04657,-0.170744 0.04657,-0.28716 0,-0.147461 -0.06985,-0.302683 -0.06209,-0.162983 -0.162983,-0.248355 -0.170744,-0.1397 -0.349249,-0.217311 -0.178506,-0.08537 -0.357011,-0.08537 -0.131939,0 -0.271638,0.04657 -0.131939,0.04657 -0.2794,0.162983 -0.124177,0.08537 -0.20955,0.20955 -0.07761,0.124178 -0.07761,0.225072 0,0.08537 0.06985,0.178505 0.06985,0.09313 0.225072,0.201789 0.01552,0.0078 0.02328,0.0388 0.0078,0.03105 0.03104,0.08537 l -0.201789,0.364772 q 0.147461,0.147461 0.294922,0.287161 0.147461,0.131938 0.2794,0.131938 z m 4.330693,1.071032 q -0.240594,-0.06209 -0.395816,-0.248355 -0.147461,-0.186266 -0.194027,-0.450144 -0.124178,-0.620888 0.01552,-1.195209 0.147461,-0.574321 0.473427,-1.102076 0.1397,-0.225072 0.178505,-0.341489 0.04657,-0.124177 -0.01552,-0.225072 -0.06209,-0.108655 -0.232833,-0.28716 -0.318205,-0.333728 -0.721782,-0.504472 -0.403577,-0.178505 -0.838199,-0.302683 -0.06985,-0.01552 -0.162983,0.01552 -0.08537,0.03104 -0.155222,0.0078 -0.100894,-0.03881 -0.201789,-0.100895 -0.100894,-0.06209 -0.201788,-0.116416 0.100894,-0.08537 0.194027,-0.186267 0.09313,-0.100894 0.194028,-0.124177 0.116416,-0.02328 0.248355,0.02328 0.131939,0.04657 0.256116,0.08537 0.574322,0.170744 1.078793,0.473427 0.504472,0.294922 0.954615,0.77611 0.481189,-0.597604 1.05551,-1.047748 0.582082,-0.457905 1.381476,-0.620888 l 0.131938,0.279399 q -0.263877,0.155222 -0.519993,0.294922 -0.248356,0.1397 -0.465666,0.318205 -0.318205,0.271639 -0.620888,0.574322 -0.302683,0.294922 -0.582083,0.613127 -0.05433,0.06985 -0.0388,0.225072 0.02328,0.14746 0.05433,0.263877 0.116417,0.488949 0.131939,0.977899 0.01552,0.488949 -0.09313,0.977898 -0.03104,0.1397 -0.09313,0.271639 -0.06209,0.131938 -0.131939,0.263877 -0.108655,0.194027 -0.271638,0.333727 -0.162984,0.1397 -0.411339,0.07761 z m 0.131939,-0.481188 q 0.240594,-0.349249 0.310444,-0.70626 0.06985,-0.364772 0.04657,-0.745066 -0.02328,-0.388055 -0.07761,-0.783871 -0.20955,0.232833 -0.341489,0.5588 -0.131939,0.318205 -0.178505,0.651932 -0.03881,0.333727 0.01552,0.613127 0.06209,0.271638 0.225072,0.411338 z m 5.262027,0.02328 q -0.372533,0 -0.760588,-0.07761 -0.380294,-0.08537 -0.589844,-0.21731 -0.28716,-0.186267 -0.411338,-0.442383 -0.124178,-0.263878 -0.124178,-0.535516 0,-0.240594 0.07761,-0.473427 0.08537,-0.232833 0.217311,-0.426861 0.06209,-0.09313 0.108656,-0.170744 0.05433,-0.08537 0.05433,-0.162983 0,-0.07761 -0.05433,-0.155222 -0.05433,-0.07761 -0.1397,-0.170744 -0.05433,-0.06209 -0.09313,-0.155222 -0.03105,-0.09313 -0.03105,-0.186266 0,-0.100895 0.03105,-0.155222 0.07761,-0.201789 0.256116,-0.442383 0.178505,-0.240594 0.42686,-0.457905 0.248356,-0.217311 0.527755,-0.357011 0.287161,-0.147461 0.574322,-0.147461 0.04657,-0.0078 0.09313,-0.0078 0.04657,-0.0078 0.100894,-0.0078 0.162983,0 0.271639,0.05433 0.108655,0.01552 0.14746,0.09313 0.04657,0.07761 -0.0078,0.170744 -0.04657,0.09313 -0.21731,0.155222 -0.147461,0.03881 -0.341489,0.03881 -0.194027,0 -0.349249,0.07761 -0.240594,0.124177 -0.457905,0.256116 -0.20955,0.131939 -0.426861,0.450144 -0.07761,0.108655 -0.07761,0.248355 0,0.108656 0.06209,0.186267 0.06209,0.07761 0.162983,0.07761 0.02328,0 0.08537,-0.01552 0.170744,-0.04657 0.372533,-0.100894 0.201789,-0.05433 0.419099,-0.05433 0.108656,-0.01552 0.217311,0.06985 0.108656,0.07761 0.162983,0.162983 0.04657,0.06985 0.04657,0.124178 0,0.1397 -0.263877,0.20955 -0.256117,0.06985 -0.582083,0.08537 -0.178505,0 -0.341488,0.131938 -0.162983,0.124178 -0.294922,0.318206 -0.124178,0.194027 -0.194028,0.419099 -0.06209,0.225072 -0.04657,0.42686 0.01552,0.2794 0.271638,0.426861 0.256117,0.1397 0.682977,0.170744 0.426861,0.03104 0.954615,-0.02328 0.03881,-0.02328 0.1397,0.01552 0.108656,0.0388 0.194028,0.108655 0.09313,0.06209 0.09313,0.1397 0,0.124178 -0.147461,0.162983 -0.124178,0.07761 -0.341488,0.124178 -0.20955,0.0388 -0.457905,0.0388 z m 3.740852,-0.512232 q -0.271639,0.194027 -0.527755,0.341488 -0.248355,0.1397 -0.512233,0.1397 -0.240594,0 -0.450143,-0.124178 -0.20955,-0.131938 -0.341489,-0.364771 -0.09313,-0.147461 -0.162983,-0.395816 -0.06209,-0.256117 -0.100894,-0.543277 -0.03881,-0.287161 -0.06209,-0.551038 -0.01552,-0.271639 -0.01552,-0.450144 0,-0.147461 0.01552,-0.294922 0.01552,-0.147461 0.05433,-0.294922 0.07761,-0.302683 0.318205,-0.302683 0.155222,0 0.240594,0.1397 0.08537,0.131939 0.03881,0.232833 -0.04657,0.155222 -0.06985,0.310444 -0.01552,0.155222 -0.01552,0.310444 0,0.155222 0.01552,0.411338 0.02328,0.248356 0.05433,0.504472 0.03104,0.248355 0.07761,0.403577 0.03104,0.108655 0.08537,0.217311 0.06209,0.100894 0.124178,0.186266 0.108655,0.155222 0.20955,0.155222 0.04657,0 0.162983,-0.02328 0.116416,-0.03104 0.162983,-0.05433 0.271638,-0.1397 0.473427,-0.35701 0.201788,-0.217311 0.310444,-0.5588 0.108655,-0.341488 0.100894,-0.845959 0,-0.03881 0,-0.155222 0,-0.116417 0.0078,-0.248356 0.0078,-0.139699 0.02328,-0.240594 0.02328,-0.108655 0.05433,-0.116416 0.09313,-0.01552 0.225072,-0.03104 0.1397,-0.01552 0.201789,0.02328 0.04657,0.03104 0.06209,0.147461 0.02328,0.116416 0.02328,0.263877 0,0.147461 -0.01552,0.287161 -0.0078,0.131938 -0.01552,0.201788 -0.08537,0.551038 -0.263877,0.98566 -0.170744,0.434621 -0.488949,0.690738 z m -1.870425,-3.220857 q -0.06985,-0.06985 -0.09313,-0.170744 -0.01552,-0.100894 0.0388,-0.186266 0.100894,-0.178506 0.194028,-0.34925 0.09313,-0.178505 0.186266,-0.349249 0.09313,-0.170744 0.186266,-0.341489 0.100895,-0.170744 0.201789,-0.341488 0.100894,-0.155222 0.240594,-0.09313 0.155222,0.06209 0.20955,0.217311 0.05433,0.14746 -0.05433,0.279399 -0.232833,0.263878 -0.403577,0.574322 -0.170744,0.302682 -0.357011,0.597604 -0.0388,0.108656 -0.155222,0.178506 -0.108655,0.06209 -0.194027,-0.01552 z m 3.802933,4.773077 q -0.05433,-0.03881 -0.09313,-0.124178 -0.0388,-0.08537 -0.03104,-0.162983 0.01552,-0.263877 0.03104,-0.63641 0.01552,-0.372533 0.03104,-0.799393 0.01552,-0.426861 0.03104,-0.853721 0.02328,-0.426861 0.03881,-0.799394 0.02328,-0.372532 0.03881,-0.628649 0,0 0.0078,-0.1397 0.01552,-0.14746 0.03104,-0.349249 0.01552,-0.201789 0.02328,-0.372533 0.0078,-0.170744 0,-0.217311 -0.03104,-0.186266 0.05433,-0.318205 0.08537,-0.1397 0.225072,-0.209549 0.162983,-0.09313 0.287161,0.01552 0.124178,0.100894 0.131939,0.372533 0.01552,0.131938 0.01552,0.364771 0.0078,0.232833 0.0078,0.496711 0,0.256116 0.0078,0.488949 0.0078,0.225072 0.03104,0.357011 0.06209,0.318205 0.232833,0.605365 0.08537,0.147461 0.240595,0.162983 0.155222,0.01552 0.325966,-0.06209 0.178505,-0.07761 0.364771,-0.294922 0.194028,-0.225072 0.341489,-0.473427 0.01552,-0.03104 0.01552,-0.194028 0.0078,-0.170744 0,-0.395816 0,-0.232833 0,-0.465666 0,-0.240594 0.0078,-0.42686 0.0078,-0.186267 0.03881,-0.248356 0.147461,-0.333727 0.28716,-0.232833 0.147461,0.09313 0.217311,0.535516 0.06985,0.434622 -0.02328,1.140882 -0.03104,0.248355 0,0.527755 0.03881,0.279399 0.162983,0.504471 0.131939,0.217311 0.372533,0.302683 0.08537,0.03104 0.21731,0.05433 0.131939,0.02328 0.225072,0.01552 0.108656,-0.01552 0.186267,0.01552 0.07761,0.02328 0.100894,0.1397 0.01552,0.100894 -0.03104,0.178505 -0.03881,0.06985 -0.147461,0.09313 -0.287161,0.06209 -0.558799,-0.01552 -0.271639,-0.07761 -0.473427,-0.225072 -0.217311,-0.139699 -0.318206,-0.333727 -0.09313,-0.194027 -0.178505,-0.457905 -0.100894,0.147461 -0.194027,0.287161 -0.09313,0.1397 -0.225072,0.248355 -0.08537,0.06985 -0.217311,0.155222 -0.124178,0.08537 -0.287161,0.131939 -0.155222,0.04657 -0.333727,0 -0.178505,-0.04657 -0.380294,-0.232833 -0.116416,-0.108655 -0.217311,-0.310444 -0.09313,-0.201789 -0.1397,-0.287161 l -0.0078,0.450144 q 0,0.07761 -0.01552,0.263877 -0.0078,0.186267 -0.02328,0.426861 -0.0078,0.240594 -0.01552,0.488949 -0.0078,0.240594 -0.01552,0.426861 -0.0078,0.186266 0,0.263877 0.01552,0.225072 0.01552,0.34925 0.0078,0.124177 -0.07761,0.302682 -0.04657,0.100895 -0.147461,0.131939 -0.100895,0.03881 -0.194028,-0.03104 z m 8.459601,-1.327148 q -0.147461,0 -0.287161,-0.06209 -0.131939,-0.06209 -0.240594,-0.186267 -0.124178,-0.14746 -0.201789,-0.240594 -0.06985,-0.100894 -0.131938,-0.201788 -0.06209,-0.100895 -0.170745,-0.263878 -0.02328,-0.04657 -0.05433,-0.108655 -0.02328,-0.06985 -0.07761,-0.186266 -0.124178,0.139699 -0.217311,0.240594 -0.09313,0.100894 -0.178505,0.209549 -0.178506,0.240594 -0.395816,0.434622 -0.20955,0.186266 -0.457905,0.341488 -0.194028,0.1397 -0.403578,0.131939 -0.209549,-0.01552 -0.372532,-0.155222 -0.155222,-0.147461 -0.217311,-0.403577 -0.06985,-0.395816 -0.03881,-0.729543 0.03105,-0.333728 0.147461,-0.667455 0.116417,-0.341488 0.302683,-0.737305 0.201789,-0.403577 0.388055,-0.628649 0.194028,-0.232833 0.481188,-0.380294 0.457905,-0.194027 0.838199,0.100895 0.03881,0.03104 0.08537,0.116416 0.04657,0.07761 0.08537,0.09313 0.178506,0.03104 0.263878,0.04657 0.08537,0.01552 0.108655,0.06985 0.03105,0.04657 0.03105,0.194027 0,0.02328 -0.01552,0.155222 -0.0078,0.124178 -0.02328,0.271639 -0.0078,0.1397 -0.0078,0.217311 0,0.388055 0.09313,0.760588 0.100894,0.364771 0.271639,0.729543 0.131938,0.240594 0.271638,0.333727 0.147461,0.09313 0.318205,0.09313 0.01552,0 0.09313,-0.0078 0.08537,-0.01552 0.162983,-0.02328 0.07761,-0.0078 0.06985,-0.0078 0.08537,0 0.155222,0.0388 0.06985,0.03104 0.108656,0.124178 0.06209,0.131939 -0.06209,0.194027 -0.124178,0.06209 -0.333727,0.07761 -0.201789,0.01552 -0.388055,0.01552 z m -2.809518,-0.481189 h 0.131938 q 0.357011,-0.108655 0.628649,-0.388055 0.271639,-0.28716 0.457905,-0.675215 0.194028,-0.388055 0.287161,-0.807155 0.06209,-0.279399 -0.0078,-0.481188 -0.06209,-0.209549 -0.294922,-0.364771 -0.49671,0.279399 -0.814915,0.690737 -0.310444,0.403578 -0.457905,0.931332 -0.100895,0.34925 -0.116417,0.605366 -0.01552,0.256116 0.186267,0.488949 z m 7.008275,0.589844 q -0.34925,0 -0.620888,-0.07761 -0.271639,-0.07761 -0.481188,-0.310444 -0.178506,-0.194027 -0.263878,-0.411338 -0.07761,-0.217311 -0.124177,-0.457905 -0.03881,-0.240594 -0.09313,-0.49671 -0.06209,-0.294922 -0.09313,-0.574322 -0.03104,-0.287161 -0.01552,-0.574321 l 0.03105,-0.551038 q -0.100895,-0.06209 -0.201789,-0.08537 -0.100894,-0.03104 -0.201789,-0.03881 -0.194027,-0.01552 -0.380294,0.0078 -0.178505,0.02328 -0.35701,0.0078 -0.162983,-0.01552 -0.232833,-0.09313 -0.06985,-0.07761 -0.04657,-0.155222 0.02328,-0.08537 0.1397,-0.124178 0.116417,-0.0388 0.240594,-0.05433 0.124178,-0.02328 0.248355,-0.03881 0.131939,-0.02328 0.341489,-0.03104 0.209549,-0.01552 0.551038,-0.0078 0.349249,0.0078 0.900287,0.04657 0.108656,0.0078 0.225072,0.01552 0.116417,0.0078 0.225072,0.02328 0.240594,0.01552 0.488949,0.04657 0.248356,0.02328 0.411339,0.09313 0.162983,0.06985 0.131938,0.232833 -0.01552,0.139699 -0.139699,0.155222 -0.116417,0.01552 -0.287161,-0.02328 -0.170744,-0.04657 -0.357011,-0.06209 -0.186266,-0.01552 -0.372532,0 -0.178506,0.0078 -0.543277,0.04657 -0.100895,0.03881 -0.155222,0.124178 -0.05433,0.08537 -0.06985,0.194027 -0.04657,0.232833 -0.03881,0.574322 0.0078,0.333727 0.06209,0.698499 0.06209,0.364771 0.162983,0.690738 0.108656,0.318205 0.256116,0.527754 0.155222,0.162983 0.271639,0.217311 0.124177,0.05433 0.20955,0.05433 0.09313,0 0.14746,0 0.131939,0 0.248356,-0.02328 0.116416,-0.03104 0.225072,-0.02328 0.108655,0 0.201788,0.09313 0.100894,0.124178 0.0078,0.225072 -0.09313,0.09313 -0.201788,0.116417 -0.147461,0.02328 -0.271639,0.02328 -0.116416,0 -0.178505,0 z m 4.819645,-0.108655 q -0.147461,0 -0.287161,-0.06209 -0.131939,-0.06209 -0.240594,-0.186267 -0.124178,-0.14746 -0.201789,-0.240594 -0.06985,-0.100894 -0.131938,-0.201788 -0.06209,-0.100895 -0.170744,-0.263878 -0.02328,-0.04657 -0.05433,-0.108655 -0.02328,-0.06985 -0.07761,-0.186266 -0.124178,0.139699 -0.217311,0.240594 -0.09313,0.100894 -0.178505,0.209549 -0.178506,0.240594 -0.395816,0.434622 -0.20955,0.186266 -0.457905,0.341488 -0.194028,0.1397 -0.403577,0.131939 -0.20955,-0.01552 -0.372533,-0.155222 -0.155222,-0.147461 -0.217311,-0.403577 -0.06985,-0.395816 -0.03881,-0.729543 0.03105,-0.333728 0.147461,-0.667455 0.116417,-0.341488 0.302683,-0.737305 0.201789,-0.403577 0.388055,-0.628649 0.194028,-0.232833 0.481188,-0.380294 0.457905,-0.194027 0.838199,0.100895 0.03881,0.03104 0.08537,0.116416 0.04657,0.07761 0.08537,0.09313 0.178506,0.03104 0.263878,0.04657 0.08537,0.01552 0.108655,0.06985 0.03105,0.04657 0.03105,0.194027 0,0.02328 -0.01552,0.155222 -0.0078,0.124178 -0.02328,0.271639 -0.0078,0.1397 -0.0078,0.217311 0,0.388055 0.09313,0.760588 0.100895,0.364771 0.271639,0.729543 0.131938,0.240594 0.271638,0.333727 0.147461,0.09313 0.318205,0.09313 0.01552,0 0.09313,-0.0078 0.08537,-0.01552 0.162984,-0.02328 0.07761,-0.0078 0.06985,-0.0078 0.08537,0 0.155222,0.0388 0.06985,0.03104 0.108656,0.124178 0.06209,0.131939 -0.06209,0.194027 -0.124178,0.06209 -0.333727,0.07761 -0.201789,0.01552 -0.388055,0.01552 z m -2.809518,-0.481189 h 0.131938 q 0.357011,-0.108655 0.628649,-0.388055 0.271639,-0.28716 0.457905,-0.675215 0.194028,-0.388055 0.287161,-0.807155 0.06209,-0.279399 -0.0078,-0.481188 -0.06209,-0.209549 -0.294922,-0.364771 -0.49671,0.279399 -0.814915,0.690737 -0.310444,0.403578 -0.457905,0.931332 -0.100895,0.34925 -0.116417,0.605366 -0.01552,0.256116 0.186267,0.488949 z"
       transform="translate(-6.8791667,7.4083333)" />
    <path
       style="font-size:32.1285px;font-family:Mynerve;-inkscape-font-specification:'Mynerve, Normal';fill:#ffffff;stroke-width:66.1018"
       d="m 36.499279,50.793381 q -0.582034,-0.01304 -0.963017,-0.445903 -0.386734,-0.464587 -0.449635,-1.36685 -0.260444,-3.379918 -0.570001,-6.752698 -0.290752,-3.40806 -0.502083,-6.795128 -0.03721,-0.482838 0.03685,-1.046962 0.07377,-0.564177 0.244802,-1.012099 0.164995,-0.479692 0.399036,-0.578823 0.437778,-0.226394 1.175576,0.08945 0.7378,0.315895 1.15484,0.808617 1.935209,2.192485 3.789457,4.494382 1.8485,2.270179 3.721546,4.536796 0.386737,0.464589 0.917729,1.16859 0.549791,0.668736 0.887414,1.140446 l 0.07386,-0.564155 Q 46.20278,43.29565 45.995621,42.153957 45.807262,40.976989 45.55099,39.842433 q -0.444631,-2.311546 -0.932619,-4.584219 -0.493742,-2.304386 -0.932617,-4.584205 -0.08057,-0.443996 0.01652,-0.881263 0.121641,-0.440841 0.1696,-0.870956 0.319217,-0.04643 0.760817,0.44274 0.466154,0.485579 0.724354,0.936295 0.27547,0.545854 0.396313,1.211842 0.145405,0.662426 0.26049,1.296695 0.656002,3.615368 1.287459,7.234303 0.656005,3.615359 1.262898,7.237874 0.07481,0.412275 -0.09748,0.990669 -0.178032,0.54669 -0.399033,0.578826 -0.313461,0.07813 -0.801499,-0.111298 -0.469228,-0.224732 -0.728968,-0.545027 -2.203378,-2.837047 -4.224904,-5.505236 -1.99697,-2.671755 -4.394117,-5.187682 -0.532525,-0.573578 -1.073883,-0.918039 -0.547112,-0.376159 -0.941138,-0.742032 0.131955,1.282834 0.148825,1.931389 0.03567,0.613276 0.05561,1.00098 0.01995,0.387691 0.03834,0.90582 0.03721,0.482851 0.147682,1.508404 0.197938,1.924242 0.45074,3.873062 0.271606,1.913533 0.494088,3.834195 0.09629,0.66956 0.03373,1.297114 -0.06832,0.595841 -0.773111,0.600649 z m 22.121676,-7.67551 q 0.224819,0.683423 0.10894,1.15598 -0.09132,0.46899 -0.328443,0.828954 -0.237115,0.359981 -0.400569,0.709243 -0.438171,0.779816 -1.221261,1.186615 -0.788841,0.375081 -1.573073,0.358893 -1.041294,-0.04396 -1.715395,-0.564359 -0.674109,-0.520457 -1.412651,-1.812754 -0.649155,-1.077428 -1.169387,-2.694423 -0.525983,-1.648693 -0.885832,-3.354094 -0.341052,-1.740684 -0.473002,-3.023515 -0.100504,-0.831689 -0.146146,-1.638817 -0.0211,-0.810697 0.05604,-1.635667 0.08866,-0.761541 0.113601,-1.318528 0.02495,-0.556981 0.503008,-0.561382 0.453505,-8.27e-4 0.718999,0.351173 0.290052,0.348433 0.376369,0.824142 0.08631,0.475708 0.0023,0.845982 -0.120319,0.863856 -0.0633,1.734378 0.0817,0.866975 0.157656,1.702243 0.162262,1.310975 0.523655,2.885949 0.380185,1.539687 0.812562,2.811396 0.23211,0.584708 0.595431,1.475855 0.357566,0.859421 0.670637,1.334715 0.271248,0.383715 0.636502,0.591018 0.384055,0.172005 0.586253,0.175164 0.202197,0.0035 0.559018,-0.113828 0.356818,-0.116981 0.567844,-0.342958 0.926596,-1.143776 1.318336,-1.623876 0.391743,-0.480107 0.588183,-0.508668 0.196444,-0.02853 0.493781,0.221169 z M 50.124009,29.347494 q -0.259741,-0.320297 -0.315752,-0.767862 -0.03145,-0.451125 0.162311,-0.772249 0.425124,-0.712814 0.782345,-1.383206 0.376014,-0.705662 0.752032,-1.411349 0.381762,-0.673948 0.793844,-1.319767 0.406328,-0.677532 0.782344,-1.383198 0.399032,-0.578829 0.915831,-0.2308 0.565916,0.34087 0.741624,1.031434 0.175709,0.69056 -0.234844,1.205952 -0.955367,0.985214 -1.637949,2.223702 -0.663782,1.203216 -1.437293,2.35728 -0.151945,0.412692 -0.58972,0.639089 -0.437781,0.226402 -0.714783,-0.18903 z m 15.216495,0.522013 q 0.632683,-0.124539 1.26651,0.173924 0.633823,0.298459 0.754666,0.964446 0.05753,0.317135 -0.105905,0.666407 -0.163454,0.349269 -0.433557,0.388534 -0.221002,0.03216 -0.402855,-0.136772 -0.187612,-0.200568 -0.382516,-0.302437 -0.176101,-0.137151 -0.466551,0.06782 -0.754312,0.565364 -1.286883,2.07501 -0.513772,1.474362 -1.228595,3.368547 l 0.922335,0.777318 q 1.310611,1.111475 2.691811,2.473086 1.405753,1.358043 2.697558,2.504802 0.176103,0.137141 0.313068,0.47529 0.161521,0.334573 0.213309,0.619994 0.08057,0.443987 -0.168069,0.740534 -0.224073,0.292991 -0.653015,0.290242 -0.404388,-0.0067 -0.828732,-0.40032 -0.539821,-0.474871 -0.956863,-0.967595 -0.417045,-0.492726 -0.992927,-1.027455 -0.521021,-0.510163 -1.235404,-1.252607 -0.695586,-0.777737 -1.391172,-1.555468 -0.695587,-0.777731 -1.254209,-1.217327 -0.09401,0.176417 -0.264745,0.624398 -0.170743,0.44798 -0.377551,0.836101 -0.182256,0.384542 -0.305032,0.402392 0.121983,1.088979 0.216737,1.888971 0.119306,0.796414 0.263167,1.589246 0.138107,0.76113 0.364069,1.867545 0.103582,0.570841 -0.214507,1.040236 -0.32383,0.437685 -0.747022,0.466662 -0.404388,-0.0067 -0.603516,-0.270309 -0.180322,-0.299292 -0.30692,-0.996998 -0.142322,-0.923262 -0.405486,-2.51252 -0.263167,-1.589257 -0.583878,-3.495649 -0.296156,-1.909962 -0.611112,-3.784635 -0.296155,-1.909976 -0.559321,-3.499225 -0.268919,-1.62097 -0.4358,-2.540672 -0.166877,-0.919702 -0.0886,-1.321681 0.102809,-0.40556 0.54369,-0.892801 0.372936,-0.444826 0.701735,0.256036 0.347596,0.665569 0.655656,2.085541 0.332618,1.416422 0.630306,3.195955 0.322254,1.775966 0.619942,3.555499 0.26475,-0.624388 0.551377,-1.544918 0.311176,-0.924101 0.609311,-1.781207 0.316934,-0.892382 0.58014,-1.386349 0.488824,-0.917377 1.116142,-1.627028 0.651883,-0.713231 1.579225,-0.880604 z"
       id="text4"
       aria-label="Νίκ"
       inkscape:transform-center-x="-0.27446727"
       inkscape:transform-center-y="0.041852713"
       inkscape:label="text4" />
  </g>
</svg>
